<?xml version="1.0" encoding="UTF-8"?>
<svg width="180px" height="44px" viewBox="0 0 180 44" version="1.1" xmlns="http://www.w3.org/2000/svg" xmlns:xlink="http://www.w3.org/1999/xlink">
    <!-- Generator: Sketch 55.2 (78181) - https://sketchapp.com -->
    <title>logo</title>
    <desc>Created with Sketch.</desc>
    <g id="Page-1" stroke="none" stroke-width="1" fill="none" fill-rule="evenodd">
        <g id="logo" fill-rule="nonzero">
            <path d="M81.6462475,21.0870183 C82.1647059,8.2168357 88.262069,0.921906694 100.920487,0.189858012 L103.682556,0.189858012 C108.041988,0.313995943 111.71501,1.11906694 115.340568,1.97342799 L115.340568,7.47931034 C109.221298,5.14077079 100.002231,2.85699797 94.2882353,6.66876268 C90.1752535,9.40709939 88.2346856,14.0348884 87.9699797,20.605071 C87.7052738,21.2020284 87.7052738,22.9198783 87.9699797,23.5259635 C87.7709939,35.4614604 97.4793103,42.3292089 109.511562,38.588641 L109.511562,24.9718053 L115.353347,24.9718053 L115.353347,41.8217039 C111.570791,42.8458418 107.707911,43.7805274 103.039959,43.9283976 L101.256389,43.9283976 C88.2638945,43.4008114 82.089858,36.0912779 81.6462475,23.0312373 L81.6462475,21.0870183 Z" id="Shape" fill="#0B1833"></path>
            <path d="M145.8,6.99736308 C140.710345,4.39046653 128.800406,2.34584178 129.114402,10.5590264 C129.269574,14.7212982 134.262475,16.8243408 137.537525,18.6608519 C140.752333,20.4681542 145.089858,23.0805274 146.928195,25.7896552 C149.403651,29.4133874 149.159026,35.7188641 146.283773,39.2312373 C141.997363,44.4669371 131.261258,45.0456389 123.281744,42.1521298 L123.281744,36.3103448 C128.075659,39.0979716 139.666126,42.0663286 142.234686,35.496146 C144.889047,28.7251521 137.606897,25.8206897 133.654564,23.5150101 C130.667951,21.7588235 127.126369,19.7981744 125.23144,17.0306288 C120.070588,9.52393509 126.509331,-0.140567951 134.782759,0.184381339 L137.221704,0.184381339 C140.518661,0.288438134 143.202231,1.00770791 145.967951,1.64482759 C145.847465,3.37728195 146.179716,5.53326572 145.8,6.99736308 Z" id="Shape" fill="#0B1833"></path>
            <path d="M39.0395538,9.58600406 C30.9760649,11.241785 25.294929,15.2780933 20.7365112,20.4371197 C13.264503,18.8926978 8.16572008,14.9750507 2.91724138,11.2070994 C6.31460446,5.84908722 11.8624746,1.11724138 20.0866126,0.511156187 C28.9332657,-0.135091278 35.2168357,4.36490872 39.0395538,9.58600406 Z" id="Shape" fill="#009DDC"></path>
            <path d="M53.2971602,1.16288032 L59.1389452,1.16288032 C59.243002,13.5766734 58.9217039,26.4340771 59.3014199,38.5868154 L77.9221095,38.5868154 L77.9221095,42.9681542 L53.2971602,42.9681542 L53.2971602,1.16288032 Z" id="Shape" fill="#0B1833"></path>
            <path d="M26.2423935,43.2803245 C24.3876268,38.6032454 22.8541582,32.5332657 22.8413561,26.5947262 C22.830426,21.2860041 26.6951318,18.8087221 30.2933063,16.5541582 C33.2507099,14.6975659 36.2318458,13.4507099 39.8501014,12.8263692 C40.0509128,12.7953347 40.293712,12.5872211 40.5,12.6657201 C42.4953347,13.4269777 43.3679513,20.1176471 43.088641,24.0060852 C42.3456389,34.4427992 34.7002028,41.0129817 26.2423935,43.2803245 Z" id="Shape" fill="#92278F"></path>
            <path d="M0,24.0042596 L0,20.2764706 C0.305491552,18.3088293 0.737832792,16.3629888 1.29432049,14.4511156 C6.63772819,17.6933063 12.174645,22.1476673 19.7634888,23.6866126 C19.106288,31.2553753 20.7401623,37.9387424 22.6843813,43.4446247 C9.99310345,44.3208925 1.38377282,35.1438134 0,24.0042596 Z" id="Shape" fill="#39B54A"></path>
            <path d="M168.320081,0.189858012 C171.629817,0.439959432 174.844625,0.7831643 177.228803,1.97342799 L177.228803,7.14888438 C172.664909,4.79208925 162.759432,2.52657201 160.543205,8.28255578 C160.060044,9.58963926 160.060044,11.0263851 160.543205,12.3334686 C161.490669,14.8052738 165.494118,17.0799189 168.321907,18.6517241 C173.58499,21.5817444 178.680122,24.0006085 179.822921,30.4758621 L179.822921,33.3967546 C179.081744,44.211359 164.050101,45.8452333 154.391075,41.9768763 L154.391075,36.3176471 C159.429615,39.0450304 170.171197,41.9567951 173.183367,35.8338742 C174.335294,33.4770791 173.564909,29.9154158 172.206694,28.3782961 C167.376268,22.8614604 155.471805,21.7259635 154.714199,12.0139959 L154.714199,10.3965517 C155.365923,3.868357 159.520892,0.836105477 166.049087,0.189858012 L168.320081,0.189858012 Z" id="Shape" fill="#0B1833"></path>
        </g>
    </g>
</svg>